<?xml version="1.0" standalone="no"?>
<!DOCTYPE svg PUBLIC "-//W3C//DTD SVG 20010904//EN"
 "http://www.w3.org/TR/2001/REC-SVG-20010904/DTD/svg10.dtd">
<svg version="1.0" xmlns="http://www.w3.org/2000/svg"
 width="138.000000pt" height="138.000000pt" viewBox="0 0 138.000000 138.000000"
 preserveAspectRatio="xMidYMid meet">
<metadata>
Created by potrace 1.11, written by Peter Selinger 2001-2013
</metadata>
<g transform="translate(0.000000,138.000000) scale(0.100000,-0.100000)"
fill="#000000" stroke="none">
<path d="M397 1183 c-1 -1 -75 -3 -164 -5 -89 -2 -159 -6 -155 -10 4 -3 97
-59 206 -123 l200 -116 80 6 c45 4 83 8 86 10 3 1 41 6 85 9 44 4 87 9 95 11
8 2 41 6 73 9 143 15 174 18 197 21 14 2 50 7 80 10 104 11 151 20 153 29 2 9
-32 21 -83 30 -14 2 -43 8 -65 14 -22 6 -51 13 -65 16 -14 2 -112 25 -218 50
-191 46 -194 46 -348 44 -86 -2 -156 -4 -157 -5z"/>
<path d="M45 1113 c2 -27 4 -53 4 -60 1 -6 49 -49 107 -95 58 -46 151 -120
207 -164 56 -45 103 -80 105 -79 2 2 5 46 6 99 1 77 -1 99 -14 110 -8 7 -96
59 -195 116 -99 56 -184 106 -189 111 -24 22 -35 8 -31 -38z"/>
<path d="M12 1030 c2 -5 28 -31 59 -57 31 -26 124 -109 209 -183 124 -110 157
-134 179 -132 14 2 76 12 136 22 110 19 150 26 215 36 19 3 55 9 80 15 25 5
59 11 75 13 108 13 302 50 310 58 12 13 24 14 -430 -58 -154 -25 -300 -47
-325 -50 l-45 -5 -225 176 c-210 164 -247 189 -238 165z"/>
<path d="M1 953 c2 -61 -3 -53 124 -188 66 -69 252 -270 277 -299 l27 -30 3
100 3 100 -188 165 c-242 211 -240 209 -244 209 -1 0 -2 -26 -2 -57z"/>
<path d="M1270 992 c0 -5 7 -9 15 -9 8 0 12 4 9 9 -3 4 -9 8 -15 8 -5 0 -9 -4
-9 -8z"/>
<path d="M1050 959 c0 -5 5 -7 10 -4 6 3 10 8 10 11 0 2 -4 4 -10 4 -5 0 -10
-5 -10 -11z"/>
<path d="M1088 963 c7 -3 16 -2 19 1 4 3 -2 6 -13 5 -11 0 -14 -3 -6 -6z"/>
<path d="M1250 959 c0 -5 5 -7 10 -4 6 3 10 8 10 11 0 2 -4 4 -10 4 -5 0 -10
-5 -10 -11z"/>
<path d="M950 950 c-9 -6 -10 -10 -3 -10 6 0 15 5 18 10 8 12 4 12 -15 0z"/>
<path d="M986 951 c-4 -5 3 -7 14 -4 23 6 26 13 6 13 -8 0 -17 -4 -20 -9z"/>
<path d="M1190 950 c0 -5 5 -10 11 -10 5 0 7 5 4 10 -3 6 -8 10 -11 10 -2 0
-4 -4 -4 -10z"/>
<path d="M1130 939 c0 -5 5 -7 10 -4 6 3 10 8 10 11 0 2 -4 4 -10 4 -5 0 -10
-5 -10 -11z"/>
<path d="M793 928 c-10 -4 -1 -6 21 -3 22 3 42 8 45 10 7 8 -45 2 -66 -7z"/>
<path d="M1046 928 c3 -5 10 -6 15 -3 13 9 11 12 -6 12 -8 0 -12 -4 -9 -9z"/>
<path d="M735 920 c-3 -5 -1 -10 4 -10 6 0 11 5 11 10 0 6 -2 10 -4 10 -3 0
-8 -4 -11 -10z"/>
<path d="M1245 920 c-5 -8 55 -3 63 4 2 3 -10 4 -27 4 -18 -1 -34 -4 -36 -8z"/>
<path d="M688 913 c7 -3 16 -2 19 1 4 3 -2 6 -13 5 -11 0 -14 -3 -6 -6z"/>
<path d="M1186 908 c3 -5 10 -6 15 -3 13 9 11 12 -6 12 -8 0 -12 -4 -9 -9z"/>
<path d="M1205 860 c-3 -6 1 -7 9 -4 18 7 21 14 7 14 -6 0 -13 -4 -16 -10z"/>
<path d="M1329 862 c-2 -6 -62 -20 -134 -32 -71 -12 -141 -23 -155 -26 -14 -2
-133 -22 -265 -44 -270 -45 -289 -49 -283 -56 3 -2 104 12 224 31 385 62 528
84 574 90 52 7 63 15 51 34 -5 8 -10 9 -12 3z"/>
<path d="M1135 849 c-3 -4 2 -6 10 -5 21 3 28 13 10 13 -9 0 -18 -4 -20 -8z"/>
<path d="M1036 828 c3 -4 11 -5 19 -1 21 7 19 12 -4 10 -11 0 -18 -5 -15 -9z"/>
<path d="M908 803 c6 -2 18 -2 25 0 6 3 1 5 -13 5 -14 0 -19 -2 -12 -5z"/>
<path d="M94 737 c1 -36 9 -54 31 -79 17 -17 35 -37 40 -44 6 -6 24 -26 40
-45 17 -19 62 -70 100 -114 60 -68 104 -118 150 -169 6 -6 25 -28 43 -50 l33
-38 -2 98 c-2 110 -10 138 -39 129 -49 -15 -59 -13 -91 23 -28 32 -88 97 -276
301 l-31 34 2 -46z"/>
<path d="M1210 760 c-23 -7 -23 -8 -3 -9 12 -1 25 4 28 9 3 6 5 10 3 9 -2 -1
-14 -5 -28 -9z"/>
<path d="M1145 749 c-3 -4 2 -6 10 -5 21 3 28 13 10 13 -9 0 -18 -4 -20 -8z"/>
<path d="M1216 728 c3 -5 10 -6 15 -3 13 9 11 12 -6 12 -8 0 -12 -4 -9 -9z"/>
<path d="M1146 721 c-4 -5 3 -7 14 -4 23 6 26 13 6 13 -8 0 -17 -4 -20 -9z"/>
<path d="M1078 713 c7 -3 16 -2 19 1 4 3 -2 6 -13 5 -11 0 -14 -3 -6 -6z"/>
<path d="M986 702 c-3 -5 1 -9 9 -9 8 0 12 4 9 9 -3 4 -7 8 -9 8 -2 0 -6 -4
-9 -8z"/>
<path d="M1198 683 c7 -3 16 -2 19 1 4 3 -2 6 -13 5 -11 0 -14 -3 -6 -6z"/>
<path d="M1228 643 c7 -3 16 -2 19 1 4 3 -2 6 -13 5 -11 0 -14 -3 -6 -6z"/>
<path d="M1200 608 c-41 -10 -221 -50 -400 -88 -344 -75 -356 -78 -348 -85 7
-7 815 169 826 180 12 12 -8 10 -78 -7z"/>
<path d="M1060 610 c-9 -6 -10 -10 -3 -10 6 0 15 5 18 10 8 12 4 12 -15 0z"/>
<path d="M1260 595 c-19 -7 -174 -43 -345 -80 -378 -82 -385 -84 -385 -94 0
-6 37 -1 231 34 39 7 439 75 478 81 18 3 43 8 55 10 11 2 36 7 54 10 42 8 41
20 -4 39 -42 17 -38 17 -84 0z"/>
<path d="M1278 513 c7 -3 16 -2 19 1 4 3 -2 6 -13 5 -11 0 -14 -3 -6 -6z"/>
<path d="M1105 480 c-3 -6 1 -7 9 -4 18 7 21 14 7 14 -6 0 -13 -4 -16 -10z"/>
<path d="M1340 460 c-8 -5 -10 -10 -5 -10 6 0 17 5 25 10 8 5 11 10 5 10 -5 0
-17 -5 -25 -10z"/>
<path d="M1250 439 c0 -5 5 -7 10 -4 6 3 10 8 10 11 0 2 -4 4 -10 4 -5 0 -10
-5 -10 -11z"/>
<path d="M1195 430 c3 -5 8 -10 11 -10 2 0 4 5 4 10 0 6 -5 10 -11 10 -5 0 -7
-4 -4 -10z"/>
<path d="M1060 410 c-9 -6 -10 -10 -3 -10 6 0 15 5 18 10 8 12 4 12 -15 0z"/>
<path d="M1098 413 c7 -3 16 -2 19 1 4 3 -2 6 -13 5 -11 0 -14 -3 -6 -6z"/>
<path d="M1340 410 c-9 -6 -10 -10 -3 -10 6 0 15 5 18 10 8 12 4 12 -15 0z"/>
<path d="M988 393 c7 -3 16 -2 19 1 4 3 -2 6 -13 5 -11 0 -14 -3 -6 -6z"/>
<path d="M1245 390 c-3 -6 1 -7 9 -4 18 7 21 14 7 14 -6 0 -13 -4 -16 -10z"/>
<path d="M1368 394 c-5 -5 -93 -28 -153 -40 -108 -21 -660 -146 -664 -150 -2
-2 -2 -6 0 -8 7 -7 813 174 823 184 5 6 7 12 5 15 -3 3 -8 2 -11 -1z"/>
<path d="M948 383 c7 -3 16 -2 19 1 4 3 -2 6 -13 5 -11 0 -14 -3 -6 -6z"/>
<path d="M810 359 c0 -5 5 -7 10 -4 6 3 10 8 10 11 0 2 -4 4 -10 4 -5 0 -10
-5 -10 -11z"/>
</g>
</svg>
